<svg xmlns="http://www.w3.org/2000/svg" viewBox="0 0 330 100" width="330" height="100">
  
    <!-- Top-left corner -->
    <path d="M20,27 L20,20 L46,20 L46,27 L27,27 L27,46 L20,46 Z" fill="#2D2F3A"/>
    <!-- Bottom-right corner -->
    <path d="M80,73 L80,80 L54,80 L54,73 L73,73 L73,54 L80,54 Z" fill="#2D2F3A"/>
    <!-- Plus horizontal -->
    <rect x="41" y="47.5" width="18" height="5" rx="1" fill="#F5922A"/>
    <!-- Plus vertical -->
    <rect x="47.5" y="41" width="5" height="18" rx="1" fill="#F5922A"/>
  <g fill="#2D2F3A"><path d="M102.53 67.28L96 67.28L96 32.72L102.53 32.72L102.53 67.28ZM124.56 68L124.56 68Q119.38 68 115.62 65.74Q111.86 63.49 109.84 59.43Q107.81 55.38 107.81 50L107.81 50Q107.81 44.62 109.84 40.57Q111.86 36.51 115.62 34.26Q119.38 32 124.56 32L124.56 32Q129.74 32 133.50 34.26Q137.26 36.51 139.28 40.57Q141.31 44.62 141.31 50L141.31 50Q141.31 55.38 139.28 59.43Q137.26 63.49 133.50 65.74Q129.74 68 124.56 68ZM124.56 61.86L124.56 61.86Q127.85 61.90 130.03 60.44Q132.22 58.98 133.31 56.29Q134.40 53.60 134.40 50L134.40 50Q134.40 46.40 133.31 43.76Q132.22 41.12 130.03 39.66Q127.85 38.19 124.56 38.14L124.56 38.14Q121.27 38.10 119.09 39.56Q116.90 41.02 115.81 43.71Q114.72 46.40 114.72 50L114.72 50Q114.72 53.60 115.81 56.24Q116.90 58.88 119.09 60.34Q121.27 61.81 124.56 61.86Z"/></g>
  <g fill="#2D2F3A"><path d="M163.80 68L163.80 68Q160.15 68 157.22 66.73Q154.30 65.46 152.24 63.10Q150.19 60.75 149.11 57.43Q148.03 54.10 148.03 50L148.03 50Q148.03 44.58 149.92 40.53Q151.80 36.49 155.33 34.26Q158.86 32.02 163.80 32.02L163.80 32.02Q169.32 32.02 172.79 34.60Q176.26 37.18 177.62 41.53L177.62 41.53L174.07 42.39Q172.94 39.22 170.36 37.33Q167.78 35.43 163.94 35.43L163.94 35.43Q159.89 35.41 157.20 37.24Q154.51 39.08 153.16 42.38Q151.80 45.68 151.78 50L151.78 50Q151.75 54.32 153.11 57.60Q154.46 60.87 157.18 62.73Q159.89 64.59 163.94 64.62L163.94 64.62Q167.66 64.62 170.09 63.18Q172.51 61.74 173.77 59.05Q175.03 56.36 175.20 52.69L175.20 52.69L167.23 52.69L167.23 49.66L178.90 49.66Q178.97 50.22 178.98 50.83Q178.99 51.44 178.99 51.70L178.99 51.70Q178.99 56.38 177.31 60.07Q175.63 63.75 172.26 65.88Q168.89 68 163.80 68ZM187.32 67.28L183.79 67.28L183.79 41.36L186.96 41.36L186.96 45.44Q187.20 45.03 187.46 44.65L187.46 44.65Q188.16 43.69 188.98 43.06L188.98 43.06Q189.98 42.18 191.33 41.71Q192.67 41.24 194.04 41.16Q195.41 41.07 196.54 41.36L196.54 41.36L196.54 44.67Q195.12 44.31 193.44 44.50Q191.76 44.70 190.34 45.85L190.34 45.85Q189.05 46.86 188.40 48.26Q187.75 49.66 187.54 51.24Q187.32 52.81 187.32 54.34L187.32 54.34L187.32 67.28ZM211.44 68L211.44 68Q207.58 68 204.84 66.25Q202.10 64.50 200.64 61.40Q199.18 58.30 199.18 54.30L199.18 54.30Q199.18 50.22 200.66 47.14Q202.15 44.07 204.90 42.36Q207.65 40.64 211.44 40.64L211.44 40.64Q215.33 40.64 218.08 42.38Q220.82 44.12 222.28 47.20Q223.73 50.29 223.73 54.30L223.73 54.30Q223.73 58.38 222.26 61.46Q220.80 64.54 218.04 66.27Q215.28 68 211.44 68ZM211.44 64.62L211.44 64.62Q215.76 64.62 217.87 61.75Q219.98 58.88 219.98 54.30L219.98 54.30Q219.98 49.59 217.86 46.81Q215.74 44.02 211.44 44.02L211.44 44.02Q208.54 44.02 206.65 45.33Q204.77 46.64 203.84 48.96Q202.92 51.27 202.92 54.30L202.92 54.30Q202.92 58.98 205.08 61.80Q207.24 64.62 211.44 64.62ZM236.64 67.28L233.57 67.28L225.65 41.34L229.18 41.36L235.32 61.50L241.49 41.36L244.70 41.36L250.87 61.50L257.06 41.36L260.57 41.36L252.65 67.28L249.58 67.28L243.10 46.64L236.64 67.28ZM279 64.18L279 67.28Q276.82 67.74 274.69 67.64Q272.57 67.54 270.90 66.73Q269.23 65.91 268.37 64.18L268.37 64.18Q267.67 62.74 267.61 61.27Q267.55 59.79 267.55 57.90L267.55 57.90L267.55 44.38L262.01 44.38L262.01 41.36L267.55 41.36L267.55 34.16L271.06 34.16L271.06 41.36L279 41.36L279 44.38L271.06 44.38L271.06 57.75Q271.06 59.38 271.09 60.48Q271.13 61.57 271.58 62.41L271.58 62.41Q272.45 64.02 274.33 64.33Q276.22 64.64 279 64.18L279 64.18ZM306.38 67.28L302.83 67.28L302.83 54.06Q302.83 51.90 302.42 50.08Q302.02 48.27 301.12 46.92Q300.22 45.56 298.79 44.82Q297.36 44.07 295.32 44.07L295.32 44.07Q293.45 44.07 292.02 44.72Q290.59 45.37 289.62 46.58Q288.65 47.79 288.14 49.52Q287.64 51.25 287.64 53.46L287.64 53.46L287.64 67.28L284.09 67.28L284.09 32.72L287.28 32.72L287.28 44.96Q288.53 43.16 290.38 42.10L290.38 42.10Q292.82 40.71 295.99 40.71L295.99 40.71Q298.32 40.71 300.06 41.43Q301.80 42.15 303.01 43.38Q304.22 44.60 304.97 46.17Q305.71 47.74 306.05 49.51Q306.38 51.27 306.38 53.02L306.38 53.02L306.38 67.28Z"/></g>
</svg>