<svg xmlns="http://www.w3.org/2000/svg" viewBox="0 0 229 158" width="229" height="158">
  <rect width="100%" height="100%" fill="#2D2F3A"/>
  
    <path d="M79.38300000000001,28 L79.38300000000001,20 L109.38300000000001,20 L109.38300000000001,28 L87.38300000000001,28 L87.38300000000001,50 L79.38300000000001,50 Z" fill="#9DA0AE"/>
    <path d="M149.383,82 L149.383,90 L119.38300000000001,90 L119.38300000000001,82 L141.383,82 L141.383,60 L149.383,60 Z" fill="#9DA0AE"/>
    <rect x="103.88300000000001" y="52" width="21" height="6" rx="1" fill="#F5922A"/>
    <rect x="111.38300000000001" y="44.5" width="6" height="21" rx="1" fill="#F5922A"/>
  <g fill="#FFFFFF"><path d="M25.71 136.87L20 136.87L20 106.63L25.71 106.63L25.71 136.87ZM44.99 137.50L44.99 137.50Q40.45 137.50 37.17 135.53Q33.88 133.55 32.11 130.00Q30.33 126.45 30.33 121.75L30.33 121.75Q30.33 117.05 32.11 113.50Q33.88 109.95 37.17 107.97Q40.45 106 44.99 106L44.99 106Q49.53 106 52.81 107.97Q56.10 109.95 57.87 113.50Q59.65 117.05 59.65 121.75L59.65 121.75Q59.65 126.45 57.87 130.00Q56.10 133.55 52.81 135.53Q49.53 137.50 44.99 137.50ZM44.99 132.12L44.99 132.12Q47.87 132.17 49.78 130.88Q51.69 129.60 52.64 127.25Q53.60 124.90 53.60 121.75L53.60 121.75Q53.60 118.60 52.64 116.29Q51.69 113.98 49.78 112.70Q47.87 111.42 44.99 111.38L44.99 111.38Q42.11 111.33 40.20 112.62Q38.29 113.90 37.34 116.25Q36.38 118.60 36.38 121.75L36.38 121.75Q36.38 124.90 37.34 127.21Q38.29 129.52 40.20 130.80Q42.11 132.08 44.99 132.12Z"/></g>
  <g fill="#9DA0AE"><path d="M80.64 137.50L80.64 137.50Q77.45 137.50 74.89 136.39Q72.33 135.27 70.53 133.22Q68.74 131.16 67.79 128.25Q66.85 125.34 66.85 121.75L66.85 121.75Q66.85 117.00 68.50 113.47Q70.14 109.93 73.23 107.97Q76.32 106.02 80.64 106.02L80.64 106.02Q85.47 106.02 88.51 108.28Q91.54 110.54 92.74 114.34L92.74 114.34L89.63 115.09Q88.65 112.32 86.39 110.66Q84.13 109.00 80.77 109.00L80.77 109.00Q77.22 108.98 74.87 110.59Q72.52 112.20 71.33 115.08Q70.14 117.97 70.12 121.75L70.12 121.75Q70.10 125.53 71.29 128.40Q72.48 131.26 74.85 132.89Q77.22 134.52 80.77 134.54L80.77 134.54Q84.03 134.54 86.15 133.28Q88.27 132.02 89.37 129.67Q90.47 127.31 90.62 124.10L90.62 124.10L83.65 124.10L83.65 121.46L93.85 121.46Q93.92 121.94 93.93 122.47Q93.94 123.01 93.94 123.24L93.94 123.24Q93.94 127.34 92.47 130.56Q91.00 133.78 88.05 135.64Q85.10 137.50 80.64 137.50ZM101.22 136.87L98.14 136.87L98.14 114.19L100.91 114.19L100.91 117.76Q101.12 117.40 101.35 117.07L101.35 117.07Q101.96 116.23 102.67 115.68L102.67 115.68Q103.56 114.90 104.73 114.49Q105.91 114.09 107.10 114.01Q108.30 113.94 109.29 114.19L109.29 114.19L109.29 117.09Q108.05 116.77 106.58 116.94Q105.11 117.11 103.87 118.12L103.87 118.12Q102.74 119.00 102.17 120.23Q101.60 121.46 101.41 122.83Q101.22 124.21 101.22 125.55L101.22 125.55L101.22 136.87ZM122.33 137.50L122.33 137.50Q118.95 137.50 116.55 135.97Q114.16 134.43 112.88 131.72Q111.60 129.02 111.60 125.51L111.60 125.51Q111.60 121.94 112.90 119.25Q114.20 116.56 116.61 115.06Q119.01 113.56 122.33 113.56L122.33 113.56Q125.73 113.56 128.14 115.08Q130.54 116.61 131.81 119.30Q133.08 122.00 133.08 125.51L133.08 125.51Q133.08 129.08 131.80 131.78Q130.52 134.48 128.10 135.99Q125.69 137.50 122.33 137.50ZM122.33 134.54L122.33 134.54Q126.11 134.54 127.96 132.03Q129.81 129.52 129.81 125.51L129.81 125.51Q129.81 121.39 127.95 118.96Q126.09 116.52 122.33 116.52L122.33 116.52Q119.79 116.52 118.14 117.67Q116.49 118.81 115.68 120.84Q114.88 122.86 114.88 125.51L114.88 125.51Q114.88 129.60 116.77 132.07Q118.66 134.54 122.33 134.54ZM144.38 136.87L141.69 136.87L134.76 114.17L137.85 114.19L143.22 131.81L148.62 114.19L151.44 114.19L156.83 131.81L162.25 114.19L165.32 114.19L158.39 136.87L155.70 136.87L150.03 118.81L144.38 136.87ZM181.44 134.16L181.44 136.87Q179.53 137.27 177.68 137.19Q175.82 137.10 174.36 136.39Q172.90 135.67 172.14 134.16L172.14 134.16Q171.53 132.90 171.48 131.61Q171.43 130.32 171.43 128.66L171.43 128.66L171.43 116.84L166.58 116.84L166.58 114.19L171.43 114.19L171.43 107.89L174.49 107.89L174.49 114.19L181.44 114.19L181.44 116.84L174.49 116.84L174.49 128.53Q174.49 129.96 174.53 130.92Q174.56 131.87 174.96 132.61L174.96 132.61Q175.71 134.01 177.36 134.29Q179.01 134.56 181.44 134.16L181.44 134.16ZM205.41 136.87L202.30 136.87L202.30 125.30Q202.30 123.41 201.94 121.82Q201.58 120.24 200.80 119.05Q200.01 117.87 198.76 117.21Q197.51 116.56 195.72 116.56L195.72 116.56Q194.09 116.56 192.84 117.13Q191.59 117.70 190.74 118.76Q189.89 119.82 189.45 121.33Q189.00 122.84 189.00 124.77L189.00 124.77L189.00 136.87L185.90 136.87L185.90 106.63L188.69 106.63L188.69 117.34Q189.78 115.77 191.40 114.84L191.40 114.84Q193.54 113.62 196.31 113.62L196.31 113.62Q198.35 113.62 199.87 114.25Q201.39 114.88 202.46 115.95Q203.52 117.03 204.17 118.40Q204.82 119.78 205.11 121.32Q205.41 122.86 205.41 124.40L205.41 124.40L205.41 136.87Z"/></g>
</svg>